<svg height="512" viewBox="6 7 34 34" width="512" xmlns="http://www.w3.org/2000/svg"><path d="m31 29.25a4.75 4.75 0 1 0 4.75 4.75 4.7555 4.7555 0 0 0 -4.75-4.75zm2 5.5h-1.25v1.25a.75.75 0 0 1 -1.5 0v-1.25h-1.25a.75.75 0 0 1 0-1.5h1.25v-1.25a.75.75 0 0 1 1.5 0v1.25h1.25a.75.75 0 0 1 0 1.5z"/><circle cx="24" cy="15" r="5.75"/><circle cx="14" cy="18" r="3.75"/><circle cx="34" cy="18" r="3.75"/><path d="m32.9 28.04a6.2649 6.2649 0 0 0 -8.02 4.71h-8.22a2.2752 2.2752 0 0 1 -2.21-2.7 9.7414 9.7414 0 0 1 18.45-2.01z"/><path d="m16.28 23.83a11.2712 11.2712 0 0 0 -3.05 4.92h-3.23a.7555.7555 0 0 1 -.75-.75 4.7543 4.7543 0 0 1 7.03-4.17z"/><path d="m38.75 28a.7555.7555 0 0 1 -.75.75h-3.14l-.59-1.32a11.1639 11.1639 0 0 0 -2.55-3.6 4.7543 4.7543 0 0 1 7.03 4.17z"/></svg>