<svg height="512" viewBox="6 7 34 34" width="512" xmlns="http://www.w3.org/2000/svg"><circle cx="22" cy="17.001" r="7.75"/><path d="m24.75 33a7.2176 7.2176 0 0 0 2.07 5.06 17.129 17.129 0 0 1 -4.8.68 18.4355 18.4355 0 0 1 -10.86-3.64 2.2638 2.2638 0 0 1 -.91-1.82 10.2958 10.2958 0 0 1 5.88-9.13 9.2571 9.2571 0 0 0 11.73.01 9.1411 9.1411 0 0 1 2.27 1.43.6215.6215 0 0 1 .22.35 7.2161 7.2161 0 0 0 -5.6 7.06z"/><path d="m32 27.25a5.3061 5.3061 0 0 0 -1.3008.1523 5.7376 5.7376 0 1 0 1.3008-.1523zm3 6.5h-2.25v2.25a.75.75 0 0 1 -1.5 0v-2.25h-2.25a.75.75 0 0 1 0-1.5h2.25v-2.25a.75.75 0 0 1 1.5 0v2.25h2.25a.75.75 0 0 1 0 1.5z"/></svg>