<svg height="58.4523" viewBox="258.15521935 231.05999921 20.5295613 25.00000158" width="48" xmlns="http://www.w3.org/2000/svg"><path d="m19.8196726 13.1384615c1.0832804 0 2.4411952-.7323585 3.2498411-1.7088366.7323585-.8849332 1.26637-2.12078828 1.26637-3.35664334 0-.16783216-.0152575-.33566433-.0457724-.47298156-1.2053402.04577241-2.6547998.8086459-3.5244756 1.83089638-.6865861.77813092-1.3121424 1.99872852-1.3121424 3.24984102 0 .1830897.030515.3661793.0457724.4272092.0762874.0152575.1983471.0305149.3204069.0305149zm-3.8143675 18.4615385c1.4799746 0 2.1360458-.9917355 3.9821997-.9917355 1.8766688 0 2.2886204.9612206 3.9364272.9612206 1.6172918 0 2.7005721-1.4952321 3.7228226-2.9599492 1.1443102-1.6783217 1.6172918-3.3261284 1.6478067-3.4024157-.1068022-.030515-3.2040686-1.296885-3.2040686-4.8518754 0-3.0820089 2.4411952-4.4704387 2.5785124-4.577241-1.6172918-2.3191354-4.0737445-2.3801653-4.7450731-2.3801653-1.8156389 0-3.2956135 1.0985379-4.2263192 1.0985379-1.006993 0-2.3343928-1.037508-3.9059122-1.037508-2.9904641 0-6.0267006 2.4717101-6.0267006 7.1404959 0 2.8989192 1.1290528 5.9656707 2.5174825 7.9491417 1.1900827 1.6783217 2.2275906 3.051494 3.7228226 3.051494z" fill="#fff" transform="translate(248.89 223.96)"/></svg>