<?xml version="1.0" encoding="UTF-8" standalone="no" ?>
<!DOCTYPE svg PUBLIC "-//W3C//DTD SVG 1.1//EN" "http://www.w3.org/Graphics/SVG/1.1/DTD/svg11.dtd">
<svg xmlns="http://www.w3.org/2000/svg" xmlns:xlink="http://www.w3.org/1999/xlink" version="1.1" width="48" height="58.452299999999994" viewBox="258.15521935 231.05999920858343 20.5295613 25.000001582833125" xml:space="preserve">
<desc>Created with Fabric.js 4.6.0</desc>
<defs>
</defs>
<g transform="matrix(1 0 0 1 268.42 243.56)" id="vcv6WwnHliJJ23_Uo8V6K"  >
<path style="stroke: none; stroke-width: 1; stroke-dasharray: none; stroke-linecap: butt; stroke-dashoffset: 0; stroke-linejoin: miter; stroke-miterlimit: 4; fill: rgb(255,255,255); fill-rule: nonzero; opacity: 1;" vector-effect="non-scaling-stroke"  transform=" translate(-19.53, -19.6)" d="M 19.8196726 13.1384615 C 20.902953 13.1384615 22.2608678 12.406103 23.0695137 11.4296249 C 23.8018722 10.5446917 24.3358837 9.30883662 24.3358837 8.07298156 C 24.3358837 7.9051494 24.3206262 7.73731723 24.2901113 7.6 C 23.0847711 7.64577241 21.6353115 8.4086459 20.7656357 9.43089638 C 20.0790496 10.2090273 19.4534933 11.4296249 19.4534933 12.6807374 C 19.4534933 12.8638271 19.4840083 13.0469167 19.4992657 13.1079466 C 19.5755531 13.1232041 19.6976128 13.1384615 19.8196726 13.1384615 Z M 16.0053051 31.6 C 17.4852797 31.6 18.1413509 30.6082645 19.9875048 30.6082645 C 21.8641736 30.6082645 22.2761252 31.5694851 23.923932 31.5694851 C 25.5412238 31.5694851 26.6245041 30.074253 27.6467546 28.6095359 C 28.7910648 26.9312142 29.2640464 25.2834075 29.2945613 25.2071202 C 29.1877591 25.1766052 26.0904927 23.9102352 26.0904927 20.3552448 C 26.0904927 17.2732359 28.5316879 15.8848061 28.6690051 15.7780038 C 27.0517133 13.4588684 24.5952606 13.3978385 23.923932 13.3978385 C 22.1082931 13.3978385 20.6283185 14.4963764 19.6976128 14.4963764 C 18.6906198 14.4963764 17.36322 13.4588684 15.7917006 13.4588684 C 12.8012365 13.4588684 9.765 15.9305785 9.765 20.5993643 C 9.765 23.4982835 10.8940528 26.565035 12.2824825 28.548506 C 13.4725652 30.2268277 14.5100731 31.6 16.0053051 31.6 Z" stroke-linecap="round" />
</g>
</svg>