<svg enable-background="new 0 0 512 512" height="512" viewBox="0 0 512 512" width="512" xmlns="http://www.w3.org/2000/svg"><path d="m61 347v53.072c-17.916 10.391-30 29.769-30 51.928 0 33.084 26.916 60 60 60h330c33.084 0 60-26.916 60-60 0-22.159-12.084-41.537-30-51.928v-53.072c0-84.845-53.918-157.261-129.119-184.477 5.909-7.972 9.119-17.549 9.119-27.523 0-13.411-5.904-25.463-15.242-33.715 27.319-18.977 45.242-50.575 45.242-86.285v-15h-15c-38.151 0-71.612 20.455-90 50.971-18.388-30.516-51.849-50.971-90-50.971h-15v15c0 35.71 17.923 67.308 45.242 86.285-9.338 8.252-15.242 20.304-15.242 33.715 0 9.974 3.21 19.551 9.119 27.523-75.201 27.216-129.119 99.632-129.119 184.477zm268.074-315.074c-6.435 27.791-28.357 49.714-56.148 56.148 6.434-27.791 28.357-49.714 56.148-56.148zm-90 56.148c-27.791-6.434-49.714-28.357-56.148-56.148 27.791 6.434 49.714 28.357 56.148 56.148zm-13.074 62.926c-7.99 0-15-7.477-15-16 0-8.271 6.729-15 15-15h60c8.271 0 15 6.729 15 15 0 8.523-7.01 16-15 16zm30 30c90.981 0 165 74.467 165 166v75c16.542 0 30 13.458 30 30s-13.458 30-30 30h-330c-16.542 0-30-13.458-30-30s13.458-30 30-30c0-16.226 0-57.472 0-75 0-91.533 74.019-166 165-166z"/><path d="m192.056 422h42.731l-4.394 4.394 21.213 21.213 40.607-40.607-40.606-40.606-21.213 21.213 4.394 4.394h-42.731c-8.11 0-11.95-5.541-13.226-7.922-1.274-2.382-3.754-8.65.744-15.398l-24.961-16.641c-9.224 13.834-10.079 31.535-2.233 46.195s23.048 23.765 39.675 23.765z"/><path d="m345.018 286.304-56.041-11.334-18.501 52.002 28.264 10.056 4.379-12.308 29.307 43.959c4.512 6.769 2.031 13.046.755 15.43-1.27 2.373-5.096 7.891-13.181 7.891v30c16.61 0 31.796-9.095 39.631-23.735 7.849-14.665 6.988-32.378-2.244-46.227l-25.14-37.71 6.824 1.38z"/><path d="m231.482 343.347-2.453-29.899-13.365 1.096 27.854-41.781c2.83-4.245 7.38-6.68 12.481-6.68s9.651 2.435 12.481 6.68l24.961-16.642c-8.365-12.547-22.362-20.038-37.442-20.038s-29.077 7.491-37.442 20.039l-23.273 34.909-.955-6.284-29.66 4.507 8.941 58.841z"/></svg>