<svg enable-background="new 0 0 512 512" height="512" viewBox="0 0 512 512" width="512" xmlns="http://www.w3.org/2000/svg"><path d="m166 0h-15v15c0 29.626 12.656 57.008 32.499 76h145.001c19.844-18.992 32.5-46.374 32.5-76v-15h-15c-38.39 0-71.686 21.94-90 52.78-18.314-30.84-51.61-52.78-90-52.78z"/><path d="m61 346v77.754c-17.437 6.198-30 22.681-30 42.246 0 24.853 20.147 46 45 46h360c24.853 0 45-21.147 45-46 0-19.565-12.563-36.048-30-42.246v-77.754c0-82.495-51.306-152.864-123.684-181.355 2.161-4.144 3.684-8.648 3.684-13.645 0-16.569-13.431-30-30-30h-90c-16.569 0-30 13.431-30 30 0 4.997 1.523 9.501 3.684 13.645-72.378 28.491-123.684 98.86-123.684 181.355zm296.382 5.039c9.229 13.828 10.093 31.523 2.241 46.187-7.837 14.663-23.042 23.774-39.683 23.774v-30c8.115 0 11.953-5.537 13.228-7.925s3.75-8.643-.747-15.396l-29.304-43.96-4.373 12.305-28.271-10.049 18.501-52.017 56.045 11.338-5.947 29.414-6.826-1.381zm-163.052-67.295.954 6.281 23.275-34.904c16.729-25.107 58.154-25.107 74.883 0l-24.961 16.641c-5.654-8.496-19.307-8.496-24.961 0l-27.858 41.777 13.37-1.099 2.461 29.912-57.891 4.746-8.921-58.843zm-39.712 67.295 24.961 16.641c-4.497 6.753-2.021 13.008-.747 15.396s5.112 7.924 13.228 7.924h42.729l-4.395-4.395 21.211-21.211 40.606 40.606-40.605 40.605-21.211-21.211 4.395-4.395h-42.73c-16.641 0-31.846-9.111-39.683-23.774-7.852-14.662-6.987-32.358 2.241-46.186z"/></svg>