<svg enable-background="new 0 0 512 512" height="512" viewBox="0 0 512 512" width="512" xmlns="http://www.w3.org/2000/svg"><path d="m0 38.258c0 28.636 23.164 52.742 51.742 52.742h129.258v30.686c-83.818 7.571-151 78.765-151 165.314v195h-30v30h512v-30h-30v-195c0-86.535-67.166-157.741-151-165.314v-30.686h129.258c28.54 0 51.742-24.072 51.742-52.742v-38.258h-512zm452 248.742v195h-392v-195c0-74.991 61.01-136 136-136h120c74.99 0 136 61.009 136 136zm-151-166h-90v-30h90zm-271-91h452v8.258c0 12.327-9.957 22.742-21.742 22.742h-408.516c-11.785 0-21.742-10.415-21.742-22.742z"/><path d="m120 317c0 74.439 61.01 135 136 135 74.439 0 135-60.561 135-135s-60.561-135-135-135c-74.99 0-136 60.561-136 135zm241 0c0 57.897-47.103 105-105 105-58.448 0-106-47.103-106-105s47.552-105 106-105c57.897 0 105 47.103 105 105z"/><path d="m241 242v32.58c-17.459 6.192-30 22.865-30 42.42 0 24.813 20.187 45 45 45s45-20.187 45-45c0-19.555-12.541-36.228-30-42.42v-32.58zm15 90c-8.271 0-15-6.729-15-15s6.729-15 15-15 15 6.729 15 15-6.729 15-15 15z"/><path d="m391 422h30v30h-30z"/><path d="m90 422h30v30h-30z"/></svg>