<svg enable-background="new 0 0 512 512" height="512" viewBox="0 0 512 512" width="512" xmlns="http://www.w3.org/2000/svg"><path d="m256 0c-65.791 0-128.354 25.006-176.165 70.412-7.014 6.661 3.316 17.538 10.329 10.877 45.012-42.747 103.907-66.289 165.836-66.289 132.888 0 241 108.112 241 241s-108.112 241-241 241-241-108.112-241-241c0-52.978 16.934-103.278 48.97-145.464 5.85-7.703-6.094-16.774-11.945-9.072-34.035 44.817-52.025 98.255-52.025 154.536 0 141.159 114.841 256 256 256s256-114.841 256-256-114.841-256-256-256z"/><path d="m274.308 451.938c-9.631.892-8.248 15.855 1.385 14.936 52.261-4.842 100.698-28.944 136.389-67.868 35.549-38.767 55.701-90.402 55.701-143.005 0-116.776-95.005-211.781-211.782-211.781s-211.783 95.004-211.783 211.78c0 53.228 19.899 104.143 56.033 143.367 35.917 38.988 84.604 62.996 137.094 67.6 9.638.845 10.944-14.098 1.311-14.943-47.6-4.174-91.836-25.544-124.967-60.268l70.273-69.399 41.764 40.067c2.906 2.788 7.645 2.741 10.496-.108l31.526-31.527 19.875 20.44c2.884 2.967 7.629 3.036 10.601.153l28.645-27.802 69.409 70.271c-32.655 33.24-75.699 53.799-121.97 58.087zm132.088-69.188-68.841-69.697 34.443-34.443 61.736 61.79c-7.199 15.112-16.359 29.347-27.338 42.35zm-150.396-323.531c108.506 0 196.782 88.275 196.782 196.781 0 24.008-4.374 47.515-12.707 69.523l-62.77-62.824c-2.896-2.9-7.712-2.899-10.609-.003l-39.683 39.683-63.755-64.548v-26.777h62.579c5.667 0 9.342-6.369 6.479-11.279l-12.884-22.084 12.884-22.089c2.863-4.909-.811-11.278-6.479-11.278h-62.579v-7.324c0-9.673-15-9.673-15 0v100.778l-84.802 83.747-37.949-37.95c-2.928-2.928-7.677-2.928-10.606 0l-42.697 42.696c-8.516-22.219-12.986-45.985-12.986-70.271 0-108.506 88.276-196.781 196.782-196.781zm48.271 122.252 8.508 14.584h-49.521v-36.73h49.521l-8.509 14.589c-1.362 2.334-1.362 5.222.001 7.557zm-225.674 159.621 41.607-41.606 32.579 32.58-49.046 48.436c-9.989-12.19-18.407-25.42-25.14-39.41zm214.556-5.693-19.953-20.521c-1.399-1.439-3.317-2.257-5.324-2.271-.018 0-.035 0-.053 0-1.988 0-3.896.79-5.304 2.196l-31.71 31.711-36.171-34.701 61.054-60.294 60.635 61.388z"/><path d="m93.128 242.949c3.978.488 7.869-2.542 8.359-6.529 3.776-30.709 16.749-59.221 37.516-82.454 20.617-23.065 47.337-39.213 77.272-46.695 9.386-2.347 5.747-16.9-3.638-14.553-32.861 8.215-62.19 25.938-84.818 51.252-22.815 25.524-37.069 56.86-41.22 90.62-.505 4.111 2.418 7.853 6.529 8.359z"/></svg>