<svg enable-background="new 0 0 512 512" height="512" viewBox="0 0 512 512" width="512" xmlns="http://www.w3.org/2000/svg"><g fill="#fff"><ellipse cx="256" cy="256" rx="248.5" ry="248.611"/><circle cx="256" cy="256" r="204.282"/><path d="m256 51.718c-10.193 0-20.208.757-30 2.198 98.598 14.513 174.282 99.455 174.282 202.084s-75.684 187.571-174.282 202.084c9.792 1.441 19.807 2.198 30 2.198 112.822 0 204.282-91.46 204.282-204.282s-91.46-204.282-204.282-204.282z"/><path d="m327 313 37.926-37.926c3.906-3.906 10.24-3.905 14.145.003l63.715 63.77c-25.802 59.847-91.552 121.648-186.786 121.648-93.016 0-159.433-59.219-186.425-120.989l43.558-43.557c3.905-3.905 10.237-3.905 14.142 0l36.148 36.148"/></g><path d="m103.415 392.07 145.25-144.12c3.915-3.884 10.239-3.852 14.115.071l144.115 145.907s-52.416 66.568-150.895 66.568c-98.333-.001-152.585-68.426-152.585-68.426z" fill="#9ed362"/><path d="m248.484 248.096-12.974 12.813 117.785 119.249c7.894 7.992 7.576 20.985-.774 28.5-19.572 17.615-58.879 45.417-116.361 50.879 6.402.617 13.012.959 19.841.959 98.479 0 150.895-66.568 150.895-66.568l-143.953-145.742c-3.968-4.017-10.441-4.058-14.459-.09z" fill="#9ed362"/><path d="m256.019 203.555h61.113c3.859 0 6.263-4.186 4.319-7.519l-9.232-15.825c-.908-1.557-.908-3.482 0-5.039l9.233-15.829c1.944-3.333-.46-7.519-4.319-7.519h-61.114" fill="#9ed362"/><path d="m327 313-26.831 26.041c-3.961 3.844-10.287 3.753-14.134-.205l-11.142-11.459c-3.888-3.999-10.297-4.044-14.241-.1l-22.808 22.808c-3.848 3.848-10.067 3.913-13.994.145l-39.85-38.23 64.645-64.042c3.927-3.89 10.265-3.857 14.15.075z" fill="#fff"/><path d="m262.796 248.033c-3.885-3.932-10.224-3.965-14.151-.075l-13.099 12.977 39.816 40.289c6.41 6.486 6.301 16.955-.243 23.307-.599.349-1.173 1.139-1.673 1.623 4.393 4.254 8.581 8.561 12.588 12.682 3.848 3.957 10.174 4.049 14.134.205l26.832-26.041z" fill="#fff"/><path d="m256 0c-65.791 0-128.354 25.006-176.165 70.412-7.014 6.661 3.316 17.538 10.329 10.877 45.012-42.747 103.907-66.289 165.836-66.289 132.888 0 241 108.112 241 241s-108.112 241-241 241-241-108.112-241-241c0-52.978 16.934-103.278 48.97-145.464 5.85-7.703-6.094-16.774-11.945-9.072-34.035 44.817-52.025 98.255-52.025 154.536 0 141.159 114.841 256 256 256s256-114.841 256-256-114.841-256-256-256z" fill="#148f31"/><path d="m274.308 451.938c-9.631.892-8.248 15.855 1.385 14.936 52.261-4.842 100.698-28.944 136.389-67.868 35.549-38.767 55.701-90.402 55.701-143.005 0-116.776-95.005-211.781-211.782-211.781s-211.783 95.004-211.783 211.78c0 53.228 19.899 104.143 56.033 143.367 35.917 38.988 84.604 62.996 137.094 67.6 9.638.845 10.944-14.098 1.311-14.943-47.6-4.174-91.836-25.544-124.967-60.268l70.273-69.399 41.764 40.067c2.906 2.788 7.645 2.741 10.496-.108l31.526-31.527 19.875 20.44c2.884 2.967 7.629 3.036 10.601.153l28.645-27.802 69.409 70.271c-32.655 33.24-75.699 53.799-121.97 58.087zm132.088-69.188-68.841-69.697 34.443-34.443 61.736 61.79c-7.199 15.112-16.359 29.347-27.338 42.35zm-150.396-323.531c108.506 0 196.782 88.275 196.782 196.781 0 24.008-4.374 47.515-12.707 69.523l-62.77-62.824c-2.896-2.9-7.712-2.899-10.609-.003l-39.683 39.683-63.755-64.548v-26.777h62.579c5.667 0 9.342-6.369 6.479-11.279l-12.884-22.084 12.884-22.089c2.863-4.909-.811-11.278-6.479-11.278h-62.579v-7.324c0-9.673-15-9.673-15 0v100.778l-84.802 83.747-37.949-37.95c-2.928-2.928-7.677-2.928-10.606 0l-42.697 42.696c-8.516-22.219-12.986-45.985-12.986-70.271 0-108.506 88.276-196.781 196.782-196.781zm48.271 122.252 8.508 14.584h-49.521v-36.73h49.521l-8.509 14.589c-1.362 2.334-1.362 5.222.001 7.557zm-225.674 159.621 41.607-41.606 32.579 32.58-49.046 48.436c-9.989-12.19-18.407-25.42-25.14-39.41zm214.556-5.693-19.953-20.521c-1.399-1.439-3.317-2.257-5.324-2.271-.018 0-.035 0-.053 0-1.988 0-3.896.79-5.304 2.196l-31.71 31.711-36.171-34.701 61.054-60.294 60.635 61.388z" fill="#148f31"/><path d="m93.128 242.949c3.978.488 7.869-2.542 8.359-6.529 3.776-30.709 16.749-59.221 37.516-82.454 20.617-23.065 47.337-39.213 77.272-46.695 9.386-2.347 5.747-16.9-3.638-14.553-32.861 8.215-62.19 25.938-84.818 51.252-22.815 25.524-37.069 56.86-41.22 90.62-.505 4.111 2.418 7.853 6.529 8.359z" fill="#148f31"/></svg>