<svg enable-background="new 0 0 512 512" viewBox="0 0 512 512" xmlns="http://www.w3.org/2000/svg"><path d="m144.7 229.4c-21.9 0-39.7-17.8-39.7-39.7s17.8-39.7 39.7-39.7 39.7 17.8 39.7 39.7-17.8 39.7-39.7 39.7zm-.1-64.9c-13.9 0-25.2 11.3-25.2 25.2s11.3 25.2 25.2 25.2 25.2-11.3 25.2-25.2-11.3-25.2-25.2-25.2z"/><path d="m78.9 310.5c-6.4 0-11.6-5.2-11.6-11.7v-20.9c0-25.3 20.6-45.9 46-45.9h65.7c10.4 0 20.5 3.5 28.7 9.9 1.5 1.1 2.5 2.8 2.7 4.8.2 1.9-.3 3.9-1.6 5.4-1.4 1.7-3.6 2.7-5.7 2.7-1.7 0-3.2-.6-4.5-1.6-5.6-4.4-12.4-6.8-19.6-6.8h-65.6c-17.4 0-31.6 14.1-31.6 31.4v18.2h13.1v-17.5c0-4.1 3.2-7.3 7.2-7.3s7.2 3.3 7.2 7.3v17.5h72.7v-17.6c0-4 3.2-7.3 7.2-7.3s7.2 3.3 7.2 7.3v17.5h14.2v-18.2c0-5.3-1.4-10.6-3.9-15-.4-.7-1.2-2-.3-3.5l.9-1.5h1.7c1.3 0 2.1.8 2.5 1.2.4.5.7.7 1 .9.8-.4 1.6-.7 2.4-.7 2.4 0 3.4 1.9 4.2 3.4.9 1.7 1.8 2.9 2.5 4 2 2.9 3.6 5.3 3.6 11.4v20.9c0 6.5-5.2 11.7-11.6 11.7z"/><path d="m377 230.4c-21.3 0-38.7-17.4-38.7-38.7s17.4-38.7 38.7-38.7 38.7 17.4 38.7 38.7-17.4 38.7-38.7 38.7zm0-64.9c-14.4 0-26.2 11.8-26.2 26.2s11.8 26.2 26.2 26.2 26.2-11.8 26.2-26.2-11.8-26.2-26.2-26.2z"/><path d="m308.2 311.3c-5.8 0-10.6-4.8-10.6-10.7v-20.9c0-6.9.6-8.3 3.6-13.5l.9-1.6c1.6-3.1 3.7-3.8 5.1-3.8.8 0 1.6.2 2.4.6.3 0 1-.4 1.4-.6.5-.3 1-.5 1.6-.5h1.1l.7 1c.6 1.1.1 2.1-.2 2.6-2.7 4.9-4.1 10.4-4 15.8v19.3h16.2v-18.5c0-3.5 2.8-6.3 6.2-6.3s6.2 2.8 6.2 6.3v18.5h74.7v-18.7c0-3.5 2.7-6.3 6.2-6.3 3.4 0 6.2 2.8 6.2 6.3v18.5h15.1v-19.2c0-17.9-14.6-32.4-32.6-32.4h-65.7c-7.4 0-14.4 2.4-20.3 7.1-1 .9-2.4 1.4-3.8 1.4-1.9 0-3.7-.9-5-2.3-2.1-2.7-1.7-6.5 1-8.7 7.9-6.3 17.8-9.8 28.1-9.8h65.7c24.8 0 45 20.1 45 44.9v20.9c0 5.9-4.8 10.7-10.6 10.7h-134.6z"/><circle cx="258.3" cy="188.5" fill="#fff" r="51.3"/><path d="m151.9 364.8c-4.2 0-7.4-3.3-7.4-7.6v-32.4c0-33.7 27.2-61.2 60.7-61.2h101.7c33.4 0 60.6 27.5 60.6 61.2v32.4c0 4.3-3.1 7.6-7.3 7.6z" fill="#fff"/><path d="m258.3 246.4c-31.9 0-57.9-26-57.9-57.9s26-57.9 57.9-57.9 57.9 26 57.9 57.9-26 57.9-57.9 57.9zm0-100.5c-23.5 0-42.7 19.2-42.7 42.7s19.2 42.7 42.7 42.7 42.7-19.2 42.7-42.7-19.2-42.7-42.7-42.7z"/><path d="m151.9 371.7c-7.9 0-14.4-6.5-14.4-14.5v-32.4c0-11.4 2.9-22.7 8.4-32.7 1.4-2.4 3.9-4 6.7-4 1.3 0 2.6.3 3.7 1 1.8 1 3.1 2.6 3.6 4.6.5 1.9.3 4-.7 5.8-4.3 7.6-6.6 16.4-6.6 25.3v31.9h29.3v-30.7c0-4.2 3.4-7.6 7.5-7.6s7.5 3.4 7.5 7.6v30.7h120v-30.7c0-4.2 3.4-7.6 7.5-7.6s7.5 3.4 7.5 7.6v30.7h27.6v-31.9c0-28.8-23.6-52.3-52.5-52.3h-101.7c-12.1 0-23.4 3.9-32.7 11.4-1.4 1.1-3 1.7-4.7 1.7-2.3 0-4.5-1.1-6-2.9-1.3-1.6-1.9-3.5-1.7-5.5s1.2-3.8 2.8-5.1c11.8-9.4 26.7-14.5 42.1-14.5h101.9c37.3 0 67.6 30.2 67.6 67.3v32.4c0 8-6.4 14.5-14.3 14.5h-208.4z"/><path d="m461.3 103.1c-2.5-3.4-7.3-4.1-10.6-1.5-3.4 2.5-4.1 7.3-1.5 10.6 31.2 41.8 47.7 91.6 47.7 143.9 0 64.3-25 124.8-70.5 170.3s-106 70.5-170.3 70.5-124.8-25-170.3-70.5-70.6-106.1-70.6-170.4 25-124.8 70.5-170.3 106-70.5 170.3-70.5c63.1 0 122.7 24.2 167.9 68.2 3 2.9 7.8 2.9 10.7-.1s2.9-7.8-.1-10.7c-48.1-46.9-111.5-72.6-178.5-72.6-68.4 0-132.7 26.6-181 75s-75 112.6-75 181 26.6 132.7 75 181 112.6 75 181 75 132.7-26.6 181-75 75-112.6 75-181c0-55.6-17.5-108.5-50.7-152.9z"/></svg>