<svg enable-background="new 0 0 512 512" viewBox="0 0 512 512" xmlns="http://www.w3.org/2000/svg"><circle cx="144.6" cy="191.7" fill="#baeb6c" r="32.5"/><path d="m74.7 300.7v-20.9c0-21.4 17.1-38.9 38.5-38.9h65.8c21.4 0 38.6 17.5 38.6 38.9v20.9c0 2.4-1.7 4.2-4.1 4.2h-134.7c-2.4 0-4.1-1.8-4.1-4.2z" fill="#baeb6c"/><path d="m144.6 230.4c-21.4 0-38.7-17.4-38.7-38.7s17.4-38.7 38.7-38.7 38.7 17.4 38.7 38.7-17.3 38.7-38.7 38.7zm0-64.9c-14.5 0-26.2 11.8-26.2 26.2s11.8 26.2 26.2 26.2 26.2-11.8 26.2-26.2-11.7-26.2-26.2-26.2z" fill="#148f31"/><path d="m78.8 311.4c-5.8 0-10.6-4.8-10.6-10.7v-20.9c0-24.7 20.2-44.9 45-44.9h65.8c10.2 0 20.2 3.4 28.1 9.7 2.7 2.1 3.1 6.1 1 8.8-1.2 1.5-3 2.4-4.9 2.4-1.4 0-2.8-.5-3.9-1.4-5.8-4.6-12.8-7.1-20.3-7.1h-65.7c-18 0-32.6 14.5-32.6 32.4v19.3h15.1v-18.5c0-3.5 2.8-6.3 6.2-6.3s6.2 2.8 6.2 6.3v18.5h74.7v-18.5c0-3.5 2.8-6.3 6.2-6.3s6.2 2.8 6.2 6.3v18.5h16.2v-19.2c0-5.4-1.4-10.9-4.1-15.7-.2-.4-.8-1.4-.1-2.5l.6-1h1.2c.8 0 1.3.4 2.2 1 .5.4 1.9 1.4 2.6 1.5.7-.4 1.4-.6 2-.6 1.9 0 2.6 1.7 2.9 2.5.2.4.3.8.6 1.2.9 1.6 1.6 2.7 2.2 3.6 1.9 3 2.5 4.2 2.5 9.9v20.9c0 5.9-4.8 10.7-10.6 10.7h-134.7z" fill="#148f31"/><circle cx="377" cy="191.7" fill="#baeb6c" r="32.5"/><path d="m442.9 304.9h-134.6c-2.4 0-4.1-1.8-4.1-4.2v-20.9c0-21.4 17.2-38.9 38.6-38.9h65.7c21.4 0 38.5 17.5 38.5 38.9v20.9c0 2.4-1.7 4.2-4.1 4.2z" fill="#baeb6c"/><path d="m377 230.4c-21.4 0-38.7-17.4-38.7-38.7s17.4-38.7 38.7-38.7 38.7 17.4 38.7 38.7-17.3 38.7-38.7 38.7zm0-64.9c-14.5 0-26.2 11.8-26.2 26.2s11.8 26.2 26.2 26.2 26.2-11.8 26.2-26.2-11.7-26.2-26.2-26.2z" fill="#148f31"/><path d="m308.3 311.4c-5.9 0-10.6-4.8-10.6-10.7v-20.9c0-7.6 1.1-9.6 4.4-15.5l.3-.6c.3-.6 1.1-2 2.8-2 1 0 1.7.6 2.3 1.1.3.2.6.5 1 .7.3-.1.9-.5 2.2-1.7.6-.6 1.1-1 2-1h1.1l.6 1c.6 1 .1 2-.2 2.5-2.7 4.9-4.1 10.3-4.1 15.7v19h16.2v-18.5c0-3.5 2.8-6.3 6.2-6.3s6.2 2.8 6.2 6.3v18.5h74.7v-18.5c0-3.5 2.8-6.3 6.2-6.3s6.2 2.8 6.2 6.3v18.5h15.2v-19.2c0-17.9-14.6-32.4-32.6-32.4h-65.7c-7.5 0-14.5 2.4-20.3 7-1.1.9-2.5 1.4-3.9 1.4-1.9 0-3.7-.9-4.9-2.4-2.1-2.7-1.7-6.6 1-8.8 7.9-6.3 17.8-9.7 28.1-9.7h65.7c24.8 0 45 20.1 45 44.9v20.9c0 5.9-4.7 10.7-10.6 10.7z" fill="#148f31"/><circle cx="258.3" cy="188.5" fill="#9ed362" r="50.3"/><path d="m360.2 363.8h-208.3c-3.7 0-6.4-2.8-6.4-6.6v-32.4c0-33.2 26.6-60.2 59.7-60.2h101.7c33.2 0 59.6 27.1 59.6 60.2v32.4c0 3.7-2.6 6.6-6.3 6.6z" fill="#9ed362"/><g fill="#148f31"><path d="m258.3 246.4c-31.9 0-57.9-26-57.9-57.9s26-57.9 57.9-57.9 57.9 26 57.9 57.9-26 57.9-57.9 57.9zm0-100.5c-23.5 0-42.7 19.1-42.7 42.7s19.1 42.7 42.7 42.7 42.7-19.3 42.7-42.8-19.2-42.6-42.7-42.6z"/><path d="m151.9 371.8c-7.9 0-14.4-6.5-14.4-14.5v-32.4c0-11.5 2.9-22.8 8.4-32.7 1.3-2.4 3.9-3.9 6.7-3.9 1.3 0 2.6.3 3.7 1 1.8 1 3.1 2.6 3.6 4.6.5 1.9.3 4-.7 5.8-4.3 7.8-6.6 16.6-6.6 25.4v31.9h29.3v-31c0-4.2 3.4-7.6 7.5-7.6s7.5 3.4 7.5 7.6v30.7h119.9v-30.7c0-4.2 3.4-7.6 7.5-7.6 4.2 0 7.5 3.4 7.5 7.6v30.7h27.6v-31.9c0-28.8-23.6-52.3-52.5-52.3h-101.7c-12 0-23.3 3.9-32.7 11.4-1.3 1.1-3 1.6-4.7 1.6-2.3 0-4.5-1.1-6-2.9-2.6-3.3-2.1-8 1.2-10.6 11.8-9.4 26.8-14.6 42.1-14.6h101.7c37.3 0 67.6 30.2 67.6 67.3v32.4c0 8-6.4 14.5-14.3 14.5h-208.2z"/><path d="m461.3 103.1c-2.5-3.4-7.3-4.1-10.6-1.5-3.4 2.5-4.1 7.3-1.5 10.6 31.2 41.8 47.7 91.6 47.7 143.9 0 64.3-25 124.8-70.5 170.3s-106 70.5-170.3 70.5-124.8-25-170.3-70.5-70.6-106.1-70.6-170.4 25-124.8 70.5-170.3 106-70.5 170.3-70.5c63.1 0 122.7 24.2 167.9 68.2 3 2.9 7.8 2.9 10.7-.1s2.9-7.8-.1-10.7c-48.1-46.9-111.5-72.6-178.5-72.6-68.4 0-132.7 26.6-181 75s-75 112.6-75 181 26.6 132.7 75 181 112.6 75 181 75 132.7-26.6 181-75 75-112.6 75-181c0-55.6-17.5-108.5-50.7-152.9z"/></g></svg>