<svg enable-background="new 0 0 512 512" viewBox="0 0 512 512" xmlns="http://www.w3.org/2000/svg"><path d="m461.311 103.059c-2.506-3.359-7.261-4.051-10.621-1.544-3.359 2.506-4.051 7.261-1.544 10.621 31.19 41.804 47.676 91.552 47.676 143.866 0 64.325-25.05 124.801-70.535 170.286s-105.961 70.534-170.287 70.534c-64.325 0-124.801-25.05-170.286-70.535s-70.536-105.962-70.536-170.287 25.05-124.801 70.535-170.286 105.961-70.536 170.287-70.536c63.065 0 122.688 24.209 167.888 68.169 3.004 2.922 7.809 2.856 10.731-.149 2.922-3.004 2.855-7.809-.149-10.731-48.049-46.731-111.43-72.467-178.47-72.467-68.38 0-132.667 26.629-181.019 74.981s-74.981 112.639-74.981 181.019 26.629 132.667 74.981 181.019 112.639 74.981 181.019 74.981 132.667-26.629 181.019-74.981 74.981-112.639 74.981-181.019c0-55.609-17.528-108.496-50.689-152.941z"/><path d="m255.657 118.277c-36.03 0-65.342 29.312-65.342 65.342s29.312 65.342 65.342 65.342 65.342-29.312 65.342-65.342-29.312-65.342-65.342-65.342zm0 115.506c-27.661 0-50.164-22.503-50.164-50.164s22.503-50.164 50.164-50.164c27.66 0 50.164 22.503 50.164 50.164s-22.503 50.164-50.164 50.164z"/><path d="m311.492 263.641h-116.886c-17.276 0-34.215 5.919-47.698 16.667-3.277 2.613-3.816 7.387-1.204 10.665 2.612 3.276 7.386 3.815 10.665 1.204 10.962-8.739 24.184-13.357 38.237-13.357h116.886c33.854 0 61.396 27.542 61.396 61.396v37.243c0 .081-.066.147-.148.147h-34.05v-36.001c0-4.191-3.398-7.589-7.589-7.589s-7.589 3.398-7.589 7.589v36.001h-139.225v-36.001c0-4.191-3.398-7.589-7.589-7.589s-7.589 3.398-7.589 7.589v36.001h-35.752c-.081 0-.147-.066-.147-.147v-37.243c0-10.397 2.643-20.666 7.645-29.697 2.031-3.667.705-8.285-2.962-10.316s-8.285-.705-10.316 2.962c-6.245 11.276-9.546 24.088-9.546 37.05v37.243c0 8.45 6.875 15.325 15.325 15.325h239.384c8.451 0 15.326-6.875 15.326-15.325v-37.243c0-42.223-34.351-76.574-76.574-76.574z"/></svg>