<svg enable-background="new 0 0 512 512" height="512" viewBox="0 0 512 512" width="512" xmlns="http://www.w3.org/2000/svg"><path d="m265.772 504.219c-137.088 5.397-252.593-101.36-257.99-238.447-5.397-137.088 101.36-252.594 238.447-257.991h.001c137.087-5.396 252.593 101.36 257.989 238.447v.001c5.396 137.087-101.36 252.593-238.447 257.99z" fill="#fff"/><path d="m504.219 246.229c-3.503-88.984-53.408-165.173-125.486-206.221 35.217 41.007 57.367 93.74 59.658 151.947 5.397 137.087-101.36 252.593-238.447 257.99-48.103 1.894-93.54-10.037-132.504-32.227 47.724 55.571 119.451 89.605 198.331 86.5 137.088-5.396 243.844-120.902 238.448-257.989z" fill="#fff"/><circle cx="255.66" cy="183.62" fill="#9ed362" r="57.753"/><path d="m372.741 385h-239.384c-4.273 0-7.357-3.269-7.357-7.542v-37.243c0-38.1 30.506-69.216 68.606-69.216h116.886c38.1 0 68.508 31.116 68.508 69.216v37.243c0 4.273-2.987 7.542-7.259 7.542z" fill="#9ed362"/><g fill="#148f31"><path d="m461.311 103.059c-2.506-3.359-7.261-4.051-10.621-1.544-3.359 2.506-4.051 7.261-1.544 10.621 31.19 41.804 47.676 91.552 47.676 143.866 0 64.325-25.05 124.801-70.535 170.286s-105.961 70.534-170.287 70.534c-64.325 0-124.801-25.05-170.286-70.535s-70.536-105.962-70.536-170.287 25.05-124.801 70.535-170.286 105.961-70.536 170.287-70.536c63.065 0 122.688 24.209 167.888 68.169 3.004 2.922 7.809 2.856 10.731-.149 2.922-3.004 2.855-7.809-.149-10.731-48.049-46.731-111.43-72.467-178.47-72.467-68.38 0-132.667 26.629-181.019 74.981s-74.981 112.639-74.981 181.019 26.629 132.667 74.981 181.019 112.639 74.981 181.019 74.981 132.667-26.629 181.019-74.981 74.981-112.639 74.981-181.019c0-55.609-17.528-108.496-50.689-152.941z"/><path d="m255.657 248.961c36.03 0 65.342-29.312 65.342-65.342s-29.312-65.342-65.342-65.342-65.342 29.312-65.342 65.342 29.312 65.342 65.342 65.342zm0-115.506c27.66 0 50.164 22.503 50.164 50.164s-22.503 50.164-50.164 50.164-50.164-22.503-50.164-50.164 22.503-50.164 50.164-50.164z"/><path d="m140.75 310.519c2.031-3.667.757-8.285-2.91-10.316s-8.274-.705-10.305 2.962c-6.245 11.276-9.535 24.088-9.535 37.05v37.243c0 8.45 6.907 15.542 15.357 15.542h239.383c8.451 0 15.26-7.092 15.26-15.542v-37.243c0-42.222-34.285-76.215-76.508-76.215h-116.886c-17.276 0-34.215 5.74-47.698 16.487-3.277 2.613-3.816 7.298-1.204 10.576 2.612 3.276 7.386 3.86 10.665 1.249 10.962-8.739 24.184-13.312 38.237-13.312h116.886c33.854 0 61.508 27.362 61.508 61.216v37.243c0 .081-.178.542-.26.542h-33.74v-36.396c0-4.191-3.309-7.589-7.5-7.589s-7.5 3.398-7.5 7.589v36.395h-140v-36.396c0-4.191-3.309-7.589-7.5-7.589s-7.5 3.398-7.5 7.589v36.396h-35.643c-.081 0-.357-.461-.357-.542v-37.243c0-10.396 2.749-20.665 7.75-29.696z"/></g></svg>